HIERARCHY
ROOT Pelvis
{
	OFFSET 0.000000 0.000000 0.000000
	CHANNELS 6 Xposition Yposition Zposition Zrotation Yrotation Xrotation 
	JOINT Left_hip
	{
		OFFSET 0.069463 -0.088608 -0.009542
		CHANNELS 3 Zrotation Yrotation Xrotation
		JOINT Left_knee
		{
			OFFSET 0.030639 -0.359740 -0.005288
			CHANNELS 3 Zrotation Yrotation Xrotation
			JOINT Left_ankle
			{
				OFFSET -0.011068 -0.376034 -0.042462
				CHANNELS 3 Zrotation Yrotation Xrotation
				JOINT Left_foot
				{
					OFFSET 0.023192 -0.053321 0.111332
					CHANNELS 3 Zrotation Yrotation Xrotation
					End Site
					{
						OFFSET 0.000000 0.000000 0.000000
					}
				}
			}
		}
	}
	JOINT Right_hip
	{
		OFFSET -0.067438 -0.088025 -0.006263
		CHANNELS 3 Zrotation Yrotation Xrotation
		JOINT Right_knee
		{
			OFFSET -0.035962 -0.366229 -0.008063
			CHANNELS 3 Zrotation Yrotation Xrotation
			JOINT Right_ankle
			{
				OFFSET 0.013608 -0.375719 -0.040481
				CHANNELS 3 Zrotation Yrotation Xrotation
				JOINT Right_foot
				{
					OFFSET -0.021034 -0.045527 0.114617
					CHANNELS 3 Zrotation Yrotation Xrotation
					End Site
					{
						OFFSET 0.000000 0.000000 0.000000
					}
				}
			}
		}
	}
	JOINT Spine1
	{
		OFFSET -0.002610 0.101823 -0.019986
		CHANNELS 3 Zrotation Yrotation Xrotation
		JOINT Spine2
		{
			OFFSET 0.004114 0.128714 -0.000938
			CHANNELS 3 Zrotation Yrotation Xrotation
			JOINT Spine3
			{
				OFFSET 0.002191 0.048470 0.027684
				CHANNELS 3 Zrotation Yrotation Xrotation
				JOINT Neck
				{
					OFFSET -0.002856 0.198873 -0.044022
					CHANNELS 3 Zrotation Yrotation Xrotation
					JOINT Head
					{
						OFFSET 0.002981 0.062960 0.049860
						CHANNELS 3 Zrotation Yrotation Xrotation
						End Site
						{
							OFFSET 0.000000 0.000000 0.000000
						}
					}
				}
				JOINT Left_collar
				{
					OFFSET 0.073708 0.112550 -0.033440
					CHANNELS 3 Zrotation Yrotation Xrotation
					JOINT Left_shoulder
					{
						OFFSET 0.083291 0.030786 -0.008013
						CHANNELS 3 Zrotation Yrotation Xrotation
						JOINT Left_elbow
						{
							OFFSET 0.245601 -0.011792 -0.027873
							CHANNELS 3 Zrotation Yrotation Xrotation
							JOINT Left_wrist
							{
								OFFSET 0.232258 0.008622 -0.000487
								CHANNELS 3 Zrotation Yrotation Xrotation
								JOINT Left_palm
								{
									OFFSET 0.077300 -0.009457 -0.012851
									CHANNELS 3 Zrotation Yrotation Xrotation
									End Site
									{
										OFFSET 0.000000 0.000000 0.000000
									}
								}
							}
						}
					}
				}
				JOINT Right_collar
				{
					OFFSET -0.075339 0.110574 -0.037874
					CHANNELS 3 Zrotation Yrotation Xrotation
					JOINT Right_shoulder
					{
						OFFSET -0.086522 0.031207 -0.009986
						CHANNELS 3 Zrotation Yrotation Xrotation
						JOINT Right_elbow
						{
							OFFSET -0.237313 -0.011478 -0.019859
							CHANNELS 3 Zrotation Yrotation Xrotation
							JOINT Right_wrist
							{
								OFFSET -0.237599 0.007976 -0.003742
								CHANNELS 3 Zrotation Yrotation Xrotation
								JOINT Right_palm
								{
									OFFSET -0.076920 -0.006943 -0.009920
									CHANNELS 3 Zrotation Yrotation Xrotation
									End Site
									{
										OFFSET 0.000000 0.000000 0.000000
									}
								}
							}
						}
					}
				}
			}
		}
	}
}
MOTION
Frames: 9
Frame Time: 0.100000
0.706634 0.117639 -0.466020 55.639589 77.134253 -142.522344 -5.743606 3.263259 -5.798283 -1.339366 -0.477224 10.501357 -3.941159 10.253670 0.893418 2.024298 9.610900 0.105615 -2.625319 -14.979460 34.069730 -1.587972 -8.034908 -1.259567 -2.498076 -7.126069 0.021607 19.174208 -9.466351 -9.590956 5.078346 11.103720 20.228559 3.782987 -0.247532 -2.166496 4.512868 7.110179 0.625809 -11.491052 0.300302 14.581536 -6.313719 -9.184552 -6.324523 -1.962359 9.072484 -4.462699 -17.126051 8.301030 -19.001187 19.009372 -20.425225 -33.710460 11.894086 -2.284403 1.053450 0.602838 0.011515 -1.059849 16.280096 13.236708 -2.225772 66.369881 15.557064 34.666956 101.890553 79.445580 130.389283 -24.310520 9.318226 5.685282 6.752401 9.353699 1.271286 
0.648000 0.126455 -0.471144 48.494573 76.869066 -148.146841 -7.834643 3.158629 -2.584771 0.236867 2.735954 -2.205790 -1.657898 12.790066 0.205229 1.680769 11.086885 1.439544 -2.535460 -14.061247 35.967703 -2.349415 -9.175353 -0.436865 -2.254892 -8.969545 -1.136740 19.658999 -8.183678 -8.250239 3.561190 10.811158 18.009586 3.469629 -0.887892 -1.886603 3.958181 6.579765 0.034540 -9.983333 3.554619 14.447643 -7.256556 -8.359694 -4.117311 -0.393552 6.049396 -5.499294 -11.693281 2.965710 -18.604398 27.327523 -30.935708 -33.884068 6.918698 -5.317886 2.978200 2.918643 1.041379 0.402115 16.296963 13.902239 -2.277310 67.078162 15.241477 35.870303 103.377002 80.378709 133.032600 -20.709092 9.553335 5.026313 4.858661 8.469391 1.944579 
0.569617 0.132997 -0.494994 50.917330 78.749311 -144.516013 -8.850267 3.194166 0.183402 -0.730497 3.784891 -1.500877 -0.744999 10.590431 6.020982 -0.715221 12.977215 -1.938401 -5.491860 -12.782096 37.213632 -3.607830 -8.351135 3.452055 -0.763785 -7.490766 2.182954 18.571959 -7.678415 -10.546960 3.531056 9.636572 14.703488 1.988723 -0.512125 -0.990046 2.695248 5.998013 -1.191376 -10.784010 3.919826 13.278659 -8.881376 -4.651939 -3.690750 -1.815968 5.801756 -5.126114 -15.055254 -1.924453 -16.415933 36.599793 -40.669215 -35.394344 3.431036 -7.349677 0.557495 4.528067 1.833334 3.483012 15.940934 13.919911 -1.682796 67.396869 15.745552 36.888189 98.673601 79.609555 129.109451 -18.046478 10.171923 7.709213 3.287522 7.563739 3.474852 
0.487392 0.131349 -0.533035 54.762830 80.641437 -141.481689 -9.735545 5.102921 6.309230 -2.388518 1.542880 -0.066010 3.046205 7.687675 3.699438 -4.811565 17.116244 -5.331366 -12.073282 -10.920179 32.045649 -5.198652 -5.779964 21.063320 7.073522 -5.458795 15.440980 13.477244 -5.010829 -17.250188 3.853009 7.259054 12.798761 0.067439 1.724424 -0.040654 1.188927 5.477539 -2.084537 -9.100461 1.632688 11.891109 -10.179823 -0.594221 -3.266388 -6.113011 7.800528 -3.858165 -21.976392 -5.050112 -14.912909 47.602464 -47.093356 -41.042575 2.490552 -7.718154 -0.487088 4.561080 1.491600 4.673778 16.539374 13.609696 -1.049931 67.754017 16.471702 37.641940 90.261697 79.155217 118.112423 -17.074176 11.090100 12.359228 3.806749 7.478419 3.724669 
0.423879 0.139719 -0.562540 49.573377 79.584184 -150.311741 -8.991223 9.026836 18.326077 -2.757071 -4.922682 -4.316893 6.750980 7.162683 1.414553 -8.629126 18.722214 -6.119935 -15.407493 -9.339829 22.015488 -6.520684 -3.328886 45.538051 7.707227 -6.365823 27.062898 15.147571 -5.277658 -21.441870 3.660475 4.422986 14.447515 -1.239243 4.106216 0.894258 0.109807 5.274245 -2.236283 -7.670015 -3.081935 12.731023 -8.697551 -1.672582 -3.006180 -6.736667 6.701462 -3.548128 -22.744575 -6.109314 -15.506867 49.980635 -47.892954 -43.373709 2.140662 -6.611004 -0.513315 3.873439 1.790390 2.906284 14.726798 16.267702 -1.476721 68.343548 17.717501 37.651307 93.246246 81.567968 120.092047 -17.275470 10.382784 16.104182 3.604038 7.721289 2.476099 
0.374909 0.134549 -0.579536 38.334751 70.872710 -164.276721 -5.203197 9.916777 27.025559 0.172668 -13.486155 -5.600319 1.751447 7.979212 1.431613 -4.345074 16.539870 -6.398506 -10.663182 -8.505197 13.226446 -6.062821 -6.245126 55.766848 2.456736 -6.583753 14.430463 16.952876 -6.324060 -18.284588 4.094340 1.361313 17.578462 -0.212884 3.597687 2.040538 0.844512 4.400659 -2.441848 -6.512751 -3.214664 13.811358 -7.628569 -6.319515 -3.679393 -3.931567 3.150948 -2.910215 -21.653689 -4.611803 -14.653120 46.675633 -48.047881 -39.452823 1.717562 -6.877006 -0.336689 5.993319 2.758293 1.305361 11.950175 18.724063 -2.512769 67.879264 17.576767 34.866696 95.502028 82.734470 123.954924 -18.324396 10.283814 14.592711 1.586426 6.908477 2.910333 
0.333180 0.122278 -0.589144 29.097168 57.371696 -171.807332 -1.059942 7.418009 28.428870 2.125808 -20.893346 -4.984530 -4.365266 5.846842 1.598428 -0.405129 13.897573 -4.846322 -4.604933 -6.915845 3.197597 -8.434727 -14.570437 48.311572 -2.370133 -10.719771 4.872257 17.054443 -9.190316 -12.127485 3.170894 -0.849906 20.332274 1.043488 1.643130 0.930763 2.565795 2.974564 -3.296992 -4.010492 -4.063395 14.082831 -2.381423 -9.388627 -7.538228 -1.717134 -0.988854 -1.276620 -21.150742 -4.009657 -14.044716 47.605760 -47.879814 -38.646306 2.082273 -7.512229 -0.065537 8.599720 2.897920 -0.156331 8.991128 20.276315 -3.232328 69.836905 16.196425 32.534032 118.084256 84.390260 150.200400 -19.463068 10.220044 11.410679 -1.251438 6.585354 4.620760 
0.291913 0.123646 -0.601509 21.265196 46.771315 -176.728677 0.462368 5.566994 28.728053 2.226982 -26.999319 -4.093607 -3.576274 1.905708 -0.160193 -6.006658 14.365629 -2.552484 -2.839913 -4.295571 -3.517498 -6.063053 -13.740770 28.324404 -1.085024 -5.516591 2.386250 16.775663 -10.607287 -5.935625 1.621813 -0.378593 22.301366 0.399119 0.846779 1.502859 2.735994 3.109044 -4.815843 0.249381 -2.826447 13.592000 4.592947 -9.618701 -10.956979 -6.059297 -7.485603 -2.503619 -14.346154 -6.232836 -13.913584 48.555887 -47.424633 -43.544705 3.621890 -7.840755 4.405626 4.427312 0.828830 -0.799376 13.196772 23.186393 -0.575854 66.857938 14.187339 29.515863 166.498547 83.585966 -161.891582 -22.853331 10.140505 10.393770 4.107079 9.214563 2.486005 
0.244429 0.137195 -0.626431 14.578108 37.819257 177.969278 2.323407 5.636602 32.902736 1.667758 -31.850903 -4.189188 -2.872085 -2.677478 -3.277111 -11.224730 16.193142 -0.885269 -4.114211 -4.289992 1.560046 -2.974302 -10.197513 -2.988042 2.759436 0.361566 1.416996 14.424190 -11.078895 -0.435155 1.153594 0.823367 22.907494 -1.049542 -0.269556 4.548082 2.623937 2.820217 -5.746537 0.844601 -3.143194 14.381851 7.991304 -10.212014 -11.849109 -10.448514 -12.246376 -3.034004 -12.756310 -11.012922 -13.700489 51.331879 -47.886640 -48.697542 4.727637 -8.287186 3.907115 2.341054 -0.479782 3.411053 16.743679 24.573979 1.415244 61.730670 12.321780 26.575008 168.989634 82.728300 -160.783577 -24.623922 10.221273 12.030323 8.743984 11.537296 1.861756 
